# xmcd CD database file
#
# Track frame offsets:
#	150
#	12420
#	25897
#	39027
#	52550
#	65795
#	78557
#	93760
#	107557
#	122305
#	136702
#	150405
#	164122
#	177992
#	192762
#	208157
#	220782
#	234395
#	248992
#
# Disc length: 3510 seconds
#
# Revision: 7
# Processed by: cddbd v1.5.2PL0 Copyright (c) Steve Scherf et al.
# Submitted via: CDex 1.70beta2
#
DISCID=ee0db413
DTITLE=Lonnie Johnson - Steppin' On The Blues
DYEAR=1990
DGENRE=Blues
TTITLE0=Mr. Johnson's Blues
TTITLE1=Sweet Potato Blues
TTITLE2=Steppin' On The Blues
TTITLE3=I Done Told You
TTITLE4=Mean Old Bedbug Blues
TTITLE5=Toothache Blues-Part I
TTITLE6=Toothache Blues-Part II
TTITLE7=Have To Change Keys (To Play These Blues)
TTITLE8=Guitar Blues
TTITLE9=She's Making Whoopee In Hell Tonight
TTITLE10=Playing With The Strings
TTITLE11=No More Women Blues
TTITLE12=Deep Blue Sea Blues
TTITLE13=No More Troubles Now
TTITLE14=Got The Blues For Murder Only
TTITLE15=Untitled
TTITLE16=6/88 Glide
TTITLE17=Racketeer's Blues
TTITLE18=I'm Nuts About That Gal
EXTD=Alfonzo "Lonnie" Johnson (1894?-02-08/1970-06-16]\nCD: Columbia CK 46221 (1990-08-20), UPC 074644622126. YEAR: 1990
EXTT0=(Lonnie Johnson]\nLonnie Johnson: vocal, guitar\nJohn Arnold: piano\nRecorded St. Louis US-MO, 1925-11-04 (matrix 9435-A) - OKeh 8253.
EXTT1=(J. Davis]\nLonnie Johnson: vocal, guitar\nprob. De Loise Searcy: piano\nRecorded Chicago US-IL, 1927-12-13 (matrix 82053-A) - OKeh 8586.
EXTT2=(Lonnie Johnson]\nLonnie Johnson: guitar\nprob. John Erby: piano\nRecorded St. Louis US-MO, 1927-04-25 (matrix 80748-A) - OKeh (unissued).
EXTT3=(Lonnie Johnson]\nLonnie Johnson, James Johnson: guitars\nRecorded St. Louis US-MO, 1927-04-25 (matrix 80746-B) - OKeh (unissued).
EXTT4=(J. Davis]\nLonnie Johnson: vocal, guitar\nRecorded New York US-NY, 1927-08-11 (matrix 81214-A) - OKeh 8497.
EXTT5=(O. Jefferson/Clarence Williams]\nVictoria Spivey, Lonnie Johnson: vocals\nClarence Williams: piano\nRecorded New York US-NY, 1928-10-17 (matrix 401243-B) - OKeh 8744.
EXTT6=(O. Jefferson/Clarence Williams]\nVictoria Spivey, Lonnie Johnson: vocals\nClarence Williams: piano\nRecorded New York US-NY, 1928-10-18 (matrix 401247-A) - OKeh 8744.
EXTT7=(Lonnie Johnson/Eddie Lang]\nLonnie Johnson, Blind Willie Dunn [Eddie Lang]: guitars\nRecorded New York US-NY, 1928-11-17 (matrix 401339-B) - OKeh 8637.
EXTT8=(Lonnie Johnson/Eddie Lang]\nLonnie Johnson, Blind Willie Dunn [Eddie Lang]: guitars\nRecorded New York US-NY, 1929-05-07 (matrix 401865-A) - OKeh 8711.
EXTT9=(Lonnie Johnson]\nLonnie Johnson: vocal, guitar\nRecorded New York US-NY, 1930-01-07 (matrix 403594-BA) - OKeh 8768.
EXTT10=(Lonnie Johnson]\nLonnie Johnson: guitar\nRecorded Memphis US-TN, 1928-02-21 (matrix 400277-B) - OKeh 8558.
EXTT11=(Alger "Texas" Alexander]\nTexas Alexander: vocal\nLonnie Johnson: guitar\nRecorded San Antonio US-TX, 1928-03-09 (matrix 400446-A) - OKeh 8624.
EXTT12=(Alger "Texas" Alexander]\nTexas Alexander: vocal\nLonnie Johnson: guitar\nRecorded San Antonio US-TX, 1928-03-09 (matrix 400445-B) - OKeh 8591.
EXTT13=(Lonnie Johnson]\nLonnie Johnson: vocal, guitar\nRecorded New York US-NY, 1930-09-11 (matrix 404437-A) - OKeh 8831.
EXTT14=(Lonnie Johnson]\nLonnie Johnson: vocal, guitar\nRecorded New York US-NY, 1930-11-22 (matrix 404560-A) - OKeh 8846.
EXTT15=(Lonnie Johnson]\nLonnie Johnson: guitar\nRecorded New York US-NY, 1927-11-09 (matrix 81809-A) - OKeh (unissued).
EXTT16=(Lonnie Johnson]\nLonnie Johnson: guitar\nposs. John Erby: piano\nRecorded New York US-NY, 1927-10-31 (matrix 81587-B) - OKeh (unissued).
EXTT17=(Lonnie Johnson]\nLonnie Johnson: vocal, guitar\nRecorded New York US-NY, 1932-08-12 (matrix 152260-2) - OKeh 8946.
EXTT18=(Lonnie Johnson]\nLonnie Johnson: vocal, guitar\nRecorded New York US-NY, 1932-08-12 (matrix 152259-2) - OKeh 8946.
PLAYORDER=
